<svg xmlns="http://www.w3.org/2000/svg" xmlns:xlink="http://www.w3.org/1999/xlink" width="1080" height="1920" viewBox="0 0 1080 1920"><defs><style>.a{fill:none;}.b{clip-path:url(#a);}.c{fill:url(#b);}.d,.e{fill:#fff;}.d{opacity:0.05;}</style><clipPath id="a"><rect class="a" width="1080" height="1920"/></clipPath><linearGradient id="b" x1="-0.144" y1="0.932" x2="1.144" y2="0.068" gradientUnits="objectBoundingBox"><stop offset="0.03" stop-color="#0c2855"/><stop offset="0.2" stop-color="#0b2d5c"/><stop offset="0.448" stop-color="#083b6f"/><stop offset="0.744" stop-color="#04518f"/><stop offset="1" stop-color="#006ab1"/></linearGradient></defs><g class="b"><path class="c" d="M0,0H1080V1920H0Z"/><path class="d" d="M939.21,1579.486c0-11.91,0-53.62,29.59-53.62,29.62,0,39.48,41.71,39.48,41.71,93.76-101.29,9.86-327.65-34.55-434.89C929.35,1025.456,880,679.916,880,566.736c0,113.18-49.34,458.72-93.75,565.95s-128.28,333.6-34.55,434.89c0,0,9.89-41.71,39.48-41.71,29.61,0,29.61,41.71,29.61,53.62s-29.61,166.8-207.23,166.8-226.97-101.27-226.97-190.65c0-89.351,34.52-137,182.55-268.061s137.11-273.61,137.11-273.61-13.94,1.39-31.34,39.231c-17.4,37.81-75.39,126.049-222.74,184.879-147.32,58.83-314.78,166.7-314.78,376.79,0,96.54,53.75,159.671,53.75,159.671s-57.16,65.129-48.94,90.97c8.24,25.849,70.01-65.6,228.91-65.6,158.93,0,303.85,3.971,338.43,11.911,0,0-69.05,54.389-153.83,108.179h108.3c35.46-29.81,66.87-55.41,90.82-70.4,22.24-13.91,23.05-1.99,0,29.82-5.92,8.17-17.37,23.02-31.95,40.58H783.9c6.81-7.29,13.24-11.739,18.68-11.739,0,0,.72,4.06,1.62,11.739H955.78c.89-7.679,1.61-11.739,1.61-11.739,5.44,0,11.87,4.449,18.68,11.739h61.04c-14.59-17.56-26.04-32.41-31.94-40.58-23.07-31.81-22.26-43.73,0-29.82,20.28,12.711,45.92,33.01,74.83,57.041v-72.36c-18.58-13.811-29.56-22.46-29.56-22.46,6.34-1.461,16.39-2.78,29.56-3.971v-69.91C961.07,1705.576,939.21,1589.726,939.21,1579.486Zm114.54-565.52s-4.05,52.9,26.25,123.88v-94.88C1065.04,1015.1,1053.75,1013.966,1053.75,1013.966Z" transform="translate(0 0.004)"/><g transform="translate(0 0.004)"><path class="e" d="M349.263,855.655,346,870.861H320.308L305.336,941.53h-18.06l14.972-70.669h-25.81l3.263-15.206Z"/><path class="e" d="M421.477,863.87a20.669,20.669,0,0,1,2.885,7.224,22.783,22.783,0,0,1-.262,9.03,31.9,31.9,0,0,1-5.681,12.03,23.125,23.125,0,0,1-11.972,8.361q5.418,2.389,6.962,6.788t-.379,13.428l-1.224,5.767a48.434,48.434,0,0,0-1.223,7.983,5.6,5.6,0,0,0,2.214,4.894l-.407,2.155H392.639q-.234-2.855-.233-4.6a41.107,41.107,0,0,1,.816-7.4l1.573-7.981q1.63-8.214-.67-10.953T383.9,907.856H365.373l-7.108,33.674H340.73l18.235-85.875h42.122q8.971.174,13.4,2.213A16.226,16.226,0,0,1,421.477,863.87Zm-48.18,6.7L368.4,893.64h20.332a24.941,24.941,0,0,0,9.38-1.4q5.885-2.448,7.458-9.671,1.631-7.807-2.972-10.486-2.621-1.517-8.448-1.516Z"/><path class="e" d="M441.724,941.53H423.9l18.235-85.875h17.827Z"/><path class="e" d="M475.837,915.022q-.41,5.885,1.339,8.8,3.264,5.3,13.866,5.3a34.411,34.411,0,0,0,10.605-1.4q8.1-2.681,9.612-9.963a5.878,5.878,0,0,0-2.331-6.583q-3.2-2.271-10.836-4.02l-8.68-2.04q-12.759-3.028-17.129-6.583-7.4-5.943-4.719-18.585a31.888,31.888,0,0,1,12.468-19.167q10.018-7.632,26.275-7.632,13.574,0,21.614,7.195t5.593,20.887H516.269q1.224-7.749-4.37-11.012-3.729-2.154-9.961-2.156a22.669,22.669,0,0,0-11.682,2.8,11.552,11.552,0,0,0-5.8,7.807q-.992,4.6,2.622,6.875,2.273,1.515,10.429,3.553l14.04,3.554q9.2,2.329,13.342,6.234,6.408,6.059,3.961,17.536-2.505,11.769-13.166,19.546T488.6,943.744q-16.779,0-24.76-7.661t-5.127-21.061Z"/><path class="e" d="M578.463,855.655h20.274l12.176,85.875H591.454l-1.806-17.653H558.013l-9.671,17.653h-18.76Zm-12.468,53.424h21.788l-3.553-33.79Z"/><path class="e" d="M639.141,855.655h17.653l-7.516,35.364,40.666-35.364h23.188l-42.706,35.364L696.7,941.53H673.631l-18.584-37.519-10.429,8.8-6.059,28.723H620.906Z"/><path class="e" d="M786.22,855.655l-3.262,15.206H757.264L742.292,941.53H724.231L739.2,870.861H713.4l3.263-15.206Z"/><path class="e" d="M793.707,941.53H775.879l18.235-85.875h17.828Z"/><path class="e" d="M341.422,1009.831H331.094q-.16-7.584-4.472-12.018t-13.789-4.433a29.133,29.133,0,0,0-20.365,8.126q-8.812,8.125-12.377,24.91-2.93,13.748,1.676,22.3t17.33,8.552a25.471,25.471,0,0,0,19.752-9,44.87,44.87,0,0,0,7.453-12.458h10.329a45.71,45.71,0,0,1-13.523,20.71,40.11,40.11,0,0,1-27.312,10.062q-13.629,0-21.136-8.252-9.851-10.913-5-33.7,3.674-17.3,15.173-28.376A41.476,41.476,0,0,1,314.7,984.223q14.854,0,21.4,7.826A22.39,22.39,0,0,1,341.422,1009.831Z"/><path class="e" d="M420.988,997.533q5.59,10.381,2.13,26.566-3.728,17.517-15.067,29.122a44.024,44.024,0,0,1-32.689,13.629q-18.048,0-25.82-11.926-6.762-11.5-3.035-29.068A57.032,57.032,0,0,1,360.136,998.7q13.2-14.479,33.008-14.481Q413.854,984.223,420.988,997.533Zm-8.784,26.726q2.926-13.788-2.475-22.2t-17.916-8.412a31.713,31.713,0,0,0-21.587,8.332q-9.452,8.332-12.912,24.57-2.769,12.992,1.917,21.907t19.432,8.918q14,0,22.388-10.034A52.41,52.41,0,0,0,412.2,1024.259Z"/><path class="e" d="M442.684,986.353H455.2l26.034,63.354L494.7,986.353H504.76l-16.61,78.208H476.278l-26.673-63.3-13.416,63.3H426.073Z"/><path class="e" d="M520.335,986.353h12.511l26.034,63.354,13.469-63.354h10.062l-16.61,78.208H553.928l-26.672-63.3-13.416,63.3H503.724Z"/><path class="e" d="M599,986.353h57.019l-2.077,9.583h-46.69l-5.005,23.744H645.42l-1.916,9.051H600.327l-5.643,26.513h47.489l-1.97,9.317H582.385Z"/><path class="e" d="M729.726,1009.831H719.4q-.16-7.584-4.472-12.018t-13.789-4.433a29.134,29.134,0,0,0-20.365,8.126q-8.812,8.125-12.377,24.91-2.93,13.748,1.676,22.3t17.33,8.552a25.471,25.471,0,0,0,19.752-9,44.871,44.871,0,0,0,7.453-12.458h10.328a45.7,45.7,0,0,1-13.522,20.71,40.11,40.11,0,0,1-27.312,10.062q-13.629,0-21.136-8.252-9.851-10.913-5-33.7,3.673-17.3,15.173-28.376A41.476,41.476,0,0,1,703,984.223q14.853,0,21.4,7.826A22.39,22.39,0,0,1,729.726,1009.831Z"/><path class="e" d="M804.181,986.353l-1.97,9.316H775.858l-14.641,68.892H750.463L765.1,995.669H738.751l1.969-9.316Z"/></g></g></svg>