<svg xmlns="http://www.w3.org/2000/svg" xmlns:xlink="http://www.w3.org/1999/xlink" width="371.915" height="488.057" viewBox="0 0 371.915 488.057"><defs><style>.a{fill:none;}.b{clip-path:url(#a);}.c{fill:#4c92ce;}.d{fill:#424143;}.e{fill:#ffd012;}.f{fill:#f29720;}.g{fill:#f1f1f2;}.h{fill:#e6e7e8;}.i{fill:#d7484e;}.j{fill:#f8b034;}</style><clipPath id="a"><rect class="a" width="371.915" height="488.057"/></clipPath></defs><g class="b" transform="translate(0 0)"><g transform="translate(32.247 367.188)"><path d="M576.782,1140.923l-1.844,8.6H560.4l-8.467,39.97H541.723l8.467-39.97h-14.6l1.844-8.6Z" transform="translate(-530.852 -1139.506)"/><path d="M598.872,1145.57a11.715,11.715,0,0,1,1.631,4.085,12.924,12.924,0,0,1-.149,5.107,18.032,18.032,0,0,1-3.214,6.8,13.085,13.085,0,0,1-6.772,4.729,6.715,6.715,0,0,1,3.938,3.839q.874,2.488-.215,7.6l-.692,3.261a27.457,27.457,0,0,0-.692,4.515,3.163,3.163,0,0,0,1.252,2.767l-.229,1.221H582.561q-.133-1.614-.132-2.6a23.137,23.137,0,0,1,.46-4.184l.89-4.515q.923-4.647-.378-6.2t-5.785-1.549H567.138l-4.019,19.048H553.2l10.314-48.572h23.824a19.956,19.956,0,0,1,7.579,1.252A9.192,9.192,0,0,1,598.872,1145.57Zm-27.251,3.79-2.77,13.048h11.5a14.076,14.076,0,0,0,5.3-.791,7.093,7.093,0,0,0,4.219-5.469q.92-4.418-1.681-5.931a9.984,9.984,0,0,0-4.779-.857Z" transform="translate(-512.096 -1139.506)"/><path d="M586.062,1189.495H575.977l10.314-48.572h10.084Z" transform="translate(-487.834 -1139.506)"/><path d="M595.418,1175.232a8.693,8.693,0,0,0,.758,4.975q1.846,3,7.842,3a19.422,19.422,0,0,0,6-.791q4.579-1.515,5.436-5.634a3.323,3.323,0,0,0-1.318-3.723,18.2,18.2,0,0,0-6.13-2.274l-4.909-1.154q-7.218-1.713-9.688-3.724-4.185-3.361-2.67-10.512a18.037,18.037,0,0,1,7.053-10.841q5.666-4.315,14.861-4.316,7.677,0,12.224,4.068t3.164,11.815h-9.754q.694-4.384-2.47-6.229a11.248,11.248,0,0,0-5.636-1.219,12.812,12.812,0,0,0-6.607,1.582,6.525,6.525,0,0,0-3.277,4.415,3.338,3.338,0,0,0,1.483,3.887,22.9,22.9,0,0,0,5.9,2.011l7.941,2.01q5.208,1.317,7.546,3.525,3.624,3.43,2.241,9.919a18.087,18.087,0,0,1-7.447,11.055q-6.031,4.4-15.324,4.4-9.489,0-14-4.333t-2.9-11.912Z" transform="translate(-477.897 -1140.237)"/><path d="M632.568,1140.923h11.468l6.887,48.572H639.916l-1.02-9.985H621l-5.471,9.985H604.921Zm-7.051,30.216h12.323l-2.01-19.111Z" transform="translate(-457.002 -1139.506)"/><path d="M640.246,1140.923h9.985l-4.25,20,23-20H682.1l-24.153,20,14.861,28.57h-13.05l-10.51-21.222-5.9,4.975-3.426,16.247h-9.985Z" transform="translate(-430.36 -1139.506)"/><path d="M696.452,1140.923l-1.844,8.6H680.075l-8.469,39.97H661.391l8.469-39.97h-14.6l1.844-8.6Z" transform="translate(-403.377 -1139.506)"/><path d="M682.46,1189.495H672.375l10.314-48.572h10.084Z" transform="translate(-385.149 -1139.506)"/><path d="M574.793,1190.617h-5.843a9.632,9.632,0,0,0-2.53-6.8q-2.438-2.506-7.8-2.507a16.483,16.483,0,0,0-11.518,4.595q-4.984,4.6-7,14.089-1.657,7.779.948,12.615t9.8,4.837a14.415,14.415,0,0,0,11.173-5.089,25.434,25.434,0,0,0,4.215-7.047h5.843a25.856,25.856,0,0,1-7.65,11.714,22.688,22.688,0,0,1-15.448,5.689q-7.707,0-11.953-4.667-5.573-6.171-2.832-19.06a30.443,30.443,0,0,1,8.583-16.051,23.459,23.459,0,0,1,16.891-6.8q8.4,0,12.106,4.426A12.674,12.674,0,0,1,574.793,1190.617Z" transform="translate(-533.297 -1101.999)"/><path d="M597.3,1183.662q3.16,5.874,1.2,15.027a32.745,32.745,0,0,1-8.521,16.472,24.9,24.9,0,0,1-18.49,7.707q-10.207,0-14.6-6.745-3.826-6.5-1.718-16.441a32.276,32.276,0,0,1,7.71-15.357,24.216,24.216,0,0,1,18.67-8.19Q593.26,1176.134,597.3,1183.662Zm-4.969,15.117q1.654-7.8-1.4-12.556t-10.132-4.759a17.936,17.936,0,0,0-12.212,4.713q-5.344,4.712-7.3,13.9-1.564,7.348,1.084,12.389t10.991,5.045a15.665,15.665,0,0,0,12.662-5.675A29.665,29.665,0,0,0,592.327,1198.779Z" transform="translate(-510.797 -1101.999)"/><path d="M585.968,1176.717h7.078l14.725,35.833,7.619-35.833h5.69l-9.395,44.235H604.97l-15.086-35.8-7.588,35.8h-5.723Z" transform="translate(-487.199 -1101.378)"/><path d="M607.235,1176.717h7.076l14.725,35.833,7.619-35.833h5.692l-9.395,44.235h-6.716l-15.086-35.8-7.588,35.8H597.84Z" transform="translate(-464.545 -1101.378)"/><path d="M628.778,1176.717h32.25l-1.175,5.421H633.445l-2.832,13.43h24.421l-1.084,5.12H629.53l-3.191,15H653.2l-1.115,5.268h-32.7Z" transform="translate(-441.597 -1101.378)"/><path d="M681.138,1190.617H675.3a9.64,9.64,0,0,0-2.528-6.8q-2.441-2.506-7.8-2.507a16.487,16.487,0,0,0-11.518,4.595q-4.984,4.6-7,14.089-1.657,7.779.948,12.615t9.8,4.837a14.411,14.411,0,0,0,11.173-5.089,25.378,25.378,0,0,0,4.215-7.047h5.843a25.855,25.855,0,0,1-7.65,11.714,22.684,22.684,0,0,1-15.448,5.689q-7.708,0-11.954-4.667-5.573-6.171-2.831-19.06a30.441,30.441,0,0,1,8.583-16.051,23.461,23.461,0,0,1,16.894-6.8q8.4,0,12.1,4.426A12.658,12.658,0,0,1,681.138,1190.617Z" transform="translate(-420.016 -1101.999)"/><path d="M699.214,1176.717l-1.113,5.271H683.194l-8.28,38.964H668.83l8.281-38.964h-14.9l1.113-5.271Z" transform="translate(-395.98 -1101.378)"/></g><path class="c" d="M876.139,1212.95s13.459-13.094,13.459-33.12c0-43.576-41.93-65.947-78.825-78.148s-51.42-30.5-55.777-38.347-7.844-8.135-7.844-8.135-2.736,29.564,34.332,56.748,45.716,37.067,45.716,55.6-12.356,39.539-56.837,39.539-51.895-32.127-51.895-34.6,0-11.121,7.414-11.121,9.884,8.649,9.884,8.649c23.475-21.005,2.47-67.958-8.649-90.2s-23.478-93.906-23.478-117.381c0,23.475-12.356,95.14-23.475,117.381s-32.126,69.193-8.649,90.2c0,0,2.47-8.649,9.884-8.649s7.414,8.649,7.414,11.121-7.414,34.6-51.895,34.6-56.839-21.005-56.839-39.539,8.649-28.419,45.718-55.6,34.332-56.748,34.332-56.748-3.486.291-7.844,8.135-18.884,26.146-55.78,38.347-78.823,34.572-78.823,78.148c0,20.026,13.459,33.12,13.459,33.12s-14.32,13.507-12.257,18.868,17.525-13.61,57.322-13.61,76.089.826,84.748,2.474c0,0-67.634,44.127-99.6,44.127-11.134,0-29.279-5.981-37.734-16.908-.824-1.237-3.711-.826-3.711,4.948s12.371,33.816,47.013,33.816c12.728,0,29.584-8.451,46.544-19.06,1.175,6.883,5.547,16.586,20.884,16.586,16.91,0,27.837-13.814,31.961-22.063s12.786-21.445,17.941-21.445a82.559,82.559,0,0,1,1.237,15.671c0,9.9-5.981,26.212-5.981,32.9,0,0,11.962-4.857,24.126-4.857s24.126,4.857,24.126,4.857c0-6.689-5.979-23-5.979-32.9a82.559,82.559,0,0,1,1.237-15.671c5.155,0,13.816,13.2,17.938,21.445s15.053,22.063,31.961,22.063c15.338,0,19.708-9.7,20.884-16.586,16.959,10.609,33.818,19.06,46.544,19.06,34.642,0,47.015-28.042,47.015-33.816s-2.887-6.186-3.711-4.948c-8.455,10.927-26.6,16.908-37.736,16.908-31.961,0-99.6-44.127-99.6-44.127,8.661-1.648,44.952-2.474,84.748-2.474s55.263,18.971,57.324,13.61S876.139,1212.95,876.139,1212.95ZM672.3,1234.7c-5.774,6.6-32.581,34.231-44.745,34.231-4.242,0-7.619-.977-10.589-3.54,21.439-13.754,42.6-30.274,55.333-36.877C677.866,1225.631,678.07,1228.107,672.3,1234.7Zm118.019,30.691c-2.972,2.563-6.346,3.54-10.588,3.54-12.166,0-38.971-27.633-44.745-34.231s-5.568-9.072,0-6.185C747.717,1235.12,768.878,1251.64,790.317,1265.394Z" transform="translate(-517.683 -962.441)"/><path d="M705.167,1070.408v39.384c-24.14,15.245-47.006,15.245-62.252,15.245s-52.089-10.163-66.911-22.02v-28.374Z" transform="translate(-455.558 -847.432)"/><path d="M665.439,1101.051l109.258-28.8L661.2,1052.774l-107.141,28.373Z" transform="translate(-478.93 -866.217)"/><path class="d" d="M554.063,1071.1v5.505l110.952,19.057,109.681-28.8v-4.658L665.439,1091Z" transform="translate(-478.93 -856.169)"/><g transform="translate(102.001 213.3)"><path class="e" d="M654.563,1070.634v-4.911s-67.115,8.886-74.131,9.822-9.354,5.847-8.651,11.46l-2.34,8.887-2.1,17.538a4.477,4.477,0,0,0,4.911,4.678c5.144,0,7.951-1.169,7.249-5.847s-4.911-18.942-4.911-18.942V1086.3c0-3.273,1.638-6.782,10.291-7.484S654.563,1070.634,654.563,1070.634Z" transform="translate(-566.795 -1065.723)"/><circle class="f" cx="5.721" cy="5.721" r="5.721" transform="translate(0 20.798)"/></g><g transform="translate(116.169 252.465)"><path class="g" d="M638.44,1120.775a10.2,10.2,0,0,1-7.949,2.625,10.452,10.452,0,0,1-3.4-.894c-1.155-.539-10.514-4.9-21-9.8-2.173-1.008-4.4-2.046-6.613-3.094a2.333,2.333,0,0,1-.231-.107c-1.844-.863-3.691-1.72-5.477-2.555-9.785-4.585-18.069-8.5-18.713-8.88-1.2-.721-1.394-4.556-.789-7.6a6.2,6.2,0,0,1,2.672-4,9.44,9.44,0,0,1,9.149-1.01c2.365,1.029,10.764,5,20.223,9.5,2.536,1.2,5.161,2.441,7.755,3.691,11.311,5.372,22.211,10.591,24.7,11.792a.01.01,0,0,0,.01.01c.337.153.518.24.518.24S642.225,1117.305,638.44,1120.775Z" transform="translate(-573.934 -1084.687)"/><path class="h" d="M610.039,1107.537a10.2,10.2,0,0,1-7.949,2.625,8.943,8.943,0,0,1-.931-8.131c1.644-4.8,6.266-5.142,9.207-4.834a.01.01,0,0,0,.01.01c.337.153.518.24.518.24S613.825,1104.067,610.039,1107.537Z" transform="translate(-545.533 -1071.449)"/><g transform="translate(16.486 10.264)"><path class="i" d="M588.709,1094.044l-6.793,5.783h4.371v4.6l6.7-6.839-.521-3.032Z" transform="translate(-581.916 -1084.984)"/><path class="i" d="M586.189,1097.178v10.8l3.458-2.863,3.391,1.507v-11.715l-1.959-1.1-3.165.98Z" transform="translate(-577.364 -1085.227)"/><path class="i" d="M599.463,1093.348l-7.447,3.69-3.951-2.1-.423-2.644,4.066-2.633C594.245,1090.859,596.869,1092.1,599.463,1093.348Z" transform="translate(-575.817 -1089.657)"/></g><ellipse class="j" cx="5.727" cy="4.974" rx="5.727" ry="4.974" transform="matrix(0.525, -0.851, 0.851, 0.525, 21.077, 19.606)"/></g></g></svg>